<svg width="15" height="12" viewBox="0 0 15 12" fill="none" xmlns="http://www.w3.org/2000/svg">
<path fill-rule="evenodd" clip-rule="evenodd" d="M5.16315 3.56095C5.38333 3.78113 5.38333 4.1381 5.16315 4.35828L2.17901 7.34243L5.16315 10.3266C5.38333 10.5467 5.38333 10.9037 5.16315 11.1239C4.94298 11.3441 4.586 11.3441 4.36582 11.1239L0.983005 7.7411C0.762826 7.52092 0.762826 7.16394 0.983005 6.94376L4.36582 3.56095C4.586 3.34077 4.94298 3.34077 5.16315 3.56095Z" fill="#0B213D"/>
<path fill-rule="evenodd" clip-rule="evenodd" d="M13.7841 0.0130005C14.0954 0.0130005 14.3478 0.265423 14.3478 0.576803V5.08722C14.3478 6.64412 13.0858 7.90623 11.5291 7.90623H1.9454C1.63405 7.90623 1.38165 7.65381 1.38165 7.34243C1.38165 7.03105 1.63405 6.77863 1.9454 6.77863H11.5291C12.4631 6.77863 13.2203 6.02136 13.2203 5.08722V0.576803C13.2203 0.265423 13.4727 0.0130005 13.7841 0.0130005Z" fill="#0B213D"/>
</svg>
