<svg width="52" height="50" viewBox="0 0 52 50" fill="none" xmlns="http://www.w3.org/2000/svg">
<g filter="url(#filter0_d)">
<rect x="5" y="1" width="42" height="40" rx="2" stroke="#0B213D" stroke-width="2"/>
</g>
<rect x="9" y="21" width="7" height="3" rx="1.5" fill="#0B213D"/>
<rect x="27" y="21" width="7" height="3" rx="1.5" fill="#0B213D"/>
<rect x="36" y="21" width="7" height="3" rx="1.5" fill="#0B213D"/>
<rect x="18" y="28" width="7" height="3" rx="1.5" fill="#0B213D"/>
<rect x="27" y="28" width="7" height="3" rx="1.5" fill="#0B213D"/>
<rect x="36" y="28" width="7" height="3" rx="1.5" fill="#0B213D"/>
<rect x="18" y="21" width="7" height="3" rx="1.5" fill="#0B213D"/>
<rect x="9" y="28" width="7" height="3" rx="1.5" fill="#0B213D"/>
<rect x="9" y="7" width="7" height="3" rx="1.5" fill="#0B213D"/>
<rect x="27" y="7" width="7" height="3" rx="1.5" fill="#0B213D"/>
<rect x="36" y="7" width="7" height="3" rx="1.5" fill="#0B213D"/>
<rect x="18" y="14" width="7" height="3" rx="1.5" fill="#0B213D"/>
<rect x="27" y="14" width="7" height="3" rx="1.5" fill="#0B213D"/>
<rect x="36" y="14" width="7" height="3" rx="1.5" fill="#0B213D"/>
<rect x="18" y="7" width="7" height="3" rx="1.5" fill="#0B213D"/>
<rect x="9" y="14" width="7" height="3" rx="1.5" fill="#0B213D"/>
<defs>
<filter id="filter0_d" x="0" y="0" width="52" height="50" filterUnits="userSpaceOnUse" color-interpolation-filters="sRGB">
<feFlood flood-opacity="0" result="BackgroundImageFix"/>
<feColorMatrix in="SourceAlpha" type="matrix" values="0 0 0 0 0 0 0 0 0 0 0 0 0 0 0 0 0 0 127 0"/>
<feOffset dy="4"/>
<feGaussianBlur stdDeviation="2"/>
<feColorMatrix type="matrix" values="0 0 0 0 0 0 0 0 0 0 0 0 0 0 0 0 0 0 0.25 0"/>
<feBlend mode="normal" in2="BackgroundImageFix" result="effect1_dropShadow"/>
<feBlend mode="normal" in="SourceGraphic" in2="effect1_dropShadow" result="shape"/>
</filter>
</defs>
</svg>
