<svg width="24" height="24" viewBox="0 0 24 24" fill="none" xmlns="http://www.w3.org/2000/svg">
<path fill-rule="evenodd" clip-rule="evenodd" d="M15.6636 15.6636C16.2494 15.0779 17.1992 15.0779 17.785 15.6636L23.5607 21.4393C24.1464 22.0251 24.1464 22.9749 23.5607 23.5607C22.9749 24.1464 22.0251 24.1464 21.4393 23.5607L15.6636 17.785C15.0779 17.1992 15.0779 16.2494 15.6636 15.6636Z" fill="#EDEDED"/>
<path fill-rule="evenodd" clip-rule="evenodd" d="M9.75 18C14.3063 18 18 14.3063 18 9.75C18 5.19365 14.3063 1.5 9.75 1.5C5.19365 1.5 1.5 5.19365 1.5 9.75C1.5 14.3063 5.19365 18 9.75 18ZM19.5 9.75C19.5 15.1348 15.1348 19.5 9.75 19.5C4.36522 19.5 0 15.1348 0 9.75C0 4.36522 4.36522 0 9.75 0C15.1348 0 19.5 4.36522 19.5 9.75Z" fill="#EDEDED"/>
</svg>
