<svg width="13" height="13" viewBox="0 0 13 13" fill="none" xmlns="http://www.w3.org/2000/svg">
<path fill-rule="evenodd" clip-rule="evenodd" d="M8 0.535538C8.27614 0.535538 8.5 0.759395 8.5 1.03554V4.53554H12C12.2761 4.53554 12.5 4.7594 12.5 5.03554C12.5 5.31168 12.2761 5.53554 12 5.53554H8C7.72386 5.53554 7.5 5.31168 7.5 5.03554V1.03554C7.5 0.759395 7.72386 0.535538 8 0.535538Z" fill="#173358"/>
<path fill-rule="evenodd" clip-rule="evenodd" d="M12.8536 0.146447C13.0488 0.341709 13.0488 0.658291 12.8536 0.853553L8.35355 5.35355C8.15829 5.54882 7.84171 5.54882 7.64645 5.35355C7.45118 5.15829 7.45118 4.84171 7.64645 4.64645L12.1464 0.146447C12.3417 -0.0488155 12.6583 -0.0488155 12.8536 0.146447Z" fill="#173358"/>
<path fill-rule="evenodd" clip-rule="evenodd" d="M5.35355 7.64645C5.54882 7.84171 5.54882 8.15829 5.35355 8.35355L0.853553 12.8536C0.658291 13.0488 0.341709 13.0488 0.146447 12.8536C-0.0488155 12.6583 -0.0488155 12.3417 0.146447 12.1464L4.64645 7.64645C4.84171 7.45118 5.15829 7.45118 5.35355 7.64645Z" fill="#173358"/>
<path fill-rule="evenodd" clip-rule="evenodd" d="M0.535538 8C0.535538 7.72386 0.759395 7.5 1.03554 7.5H5.03554C5.31168 7.5 5.53554 7.72386 5.53554 8V12C5.53554 12.2761 5.31168 12.5 5.03554 12.5C4.7594 12.5 4.53554 12.2761 4.53554 12V8.5H1.03554C0.759395 8.5 0.535538 8.27614 0.535538 8Z" fill="#173358"/>
</svg>
