<svg xmlns="http://www.w3.org/2000/svg" xmlns:xlink="http://www.w3.org/1999/xlink" viewBox="0 0 84.08 86.7"><defs><style>.cls-1{fill:url(#linear-gradient);}.cls-2{fill:url(#linear-gradient-2);}.cls-3{fill:url(#linear-gradient-3);}.cls-4{fill:#e7b809;fill-rule:evenodd;}.cls-5{fill:#ededed;}</style><linearGradient id="linear-gradient" x1="0.02" y1="24.09" x2="9.66" y2="24.09" gradientUnits="userSpaceOnUse"><stop offset="0" stop-color="#fff"/><stop offset="1" stop-color="#ededed"/></linearGradient><linearGradient id="linear-gradient-2" x1="0.02" y1="13.29" x2="8.32" y2="13.29" xlink:href="#linear-gradient"/><linearGradient id="linear-gradient-3" x1="4.93" y1="33.67" x2="84.08" y2="33.67" xlink:href="#linear-gradient"/></defs><title>Zasób 1</title><g id="Warstwa_2" data-name="Warstwa 2"><g id="Layer_1" data-name="Layer 1"><path class="cls-1" d="M9.66,25.6A14.17,14.17,0,0,1,5,22.38L0,25.24A31.4,31.4,0,0,0,9.66,25.6Z"/><path class="cls-2" d="M8.32,17.41A29.6,29.6,0,0,1,5.13,9.17h0L4,13.5,0,13.52l.47.54C1.42,15,3.79,16.86,8.32,17.41Z"/><path class="cls-3" d="M74.36,31.69l-.52-2.77L69.08,6.1h-35L33.35,0,10.93,6.94l-6-3.59C15.47,18.14,16,18.87,21.41,23c5.75,4.36,12.65,6.42,21.1,8.14a8,8,0,0,0,3.62-.28s10.45-3.31,14.66-3.59c3.41-.23,6.33,1.28,5.43,5.09,9.19,1.29,13.29,5.41,13.29,5.41C68,38.36,52,52,52,52,56.28,44,63.83,39,73.06,36.67A18.32,18.32,0,0,0,60.61,35a9.39,9.39,0,0,0,1.55-1.54c1-1.38.5-2.67-1.12-2.87a17.85,17.85,0,0,0-7,.7A65.57,65.57,0,0,0,32.64,41.83c-3.38,2.49-11.54,8.85-11.54,8.85a38.78,38.78,0,0,0,4.61-6.57s-6.65,1.81-10,.85A8,8,0,0,0,20,39.37S12.55,40,8.87,36.69a11.72,11.72,0,0,0,5.72-3.76A25.87,25.87,0,0,1,6,30.88L8,48.55,39,66.66l31.2.68,6.06-26a33.69,33.69,0,0,1,7.82-1.84S80.8,33.64,74.36,31.69ZM15.65,11.47s9,4.66,12.41,7.41,9.75,7.74,9.75,7.74S23.55,24,15.65,11.47ZM50.79,35.21c-.08-.59.92-1.73,3.22-2L58.73,35a7.35,7.35,0,0,1-3.41,1.14C52.92,36.47,50.89,36,50.79,35.21Z"/><path class="cls-4" d="M44.68,27.85A53.81,53.81,0,0,1,61.9,24.2l-2.44-9.35a30.07,30.07,0,0,1-3.9,5.33,29.17,29.17,0,0,1-3.87-3.46c-.22,1.63-2.22,4.94-2.22,4.94A22,22,0,0,1,42.78,18Z"/><path class="cls-5" d="M2.71,78l-.89,1.11V81.5H0V73.1H1.82v3.62h0l.82-1.08L4.58,73.1H6.74L4.05,76.5l2.84,5H4.78Z"/><path class="cls-5" d="M10.37,72.93c2.31,0,4,1.8,4,4.37s-1.68,4.37-4,4.37-4-1.8-4-4.37S8.06,72.93,10.37,72.93Zm0,6.83A2.49,2.49,0,1,0,8.21,77.3,2.21,2.21,0,0,0,10.37,79.76Z"/><path class="cls-5" d="M16.81,76.48h0s0,1,0,2.14V81.5H15V73.1h1.83L20,78h0s0-1.09,0-2V73.1h1.81v8.4H20Z"/><path class="cls-5" d="M24.63,75v1.61h2.8v1.87h-2.8v3H22.82V73.1h5.41V75Z"/><path class="cls-5" d="M29,73.1h5.51V75H30.77v1.44h2.72v1.68H30.77v1.54h3.74V81.5H29Z"/><path class="cls-5" d="M38.52,73.1a4,4,0,0,1,4,4.24,3.9,3.9,0,0,1-4,4.16H35.3V73.1Zm-.1,6.53a2.12,2.12,0,0,0,2.26-2.29A2.19,2.19,0,0,0,38.42,75h-1.3v4.66Z"/><path class="cls-5" d="M43.14,73.1h5.51V75H45v1.44h2.73v1.68H45v1.54H48.7V81.5H43.14Z"/><path class="cls-5" d="M52.11,78.73H51.3V81.5H49.49V73.1h2.87a2.71,2.71,0,0,1,3,2.84A2.39,2.39,0,0,1,54,78.33l1.73,3.17H53.53Zm.37-1.61a1,1,0,0,0,1-1.08,1,1,0,0,0-1.05-1.11H51.3v2.19Z"/><path class="cls-5" d="M58.22,80.11l-.45,1.39H55.86l2.92-8.4h2.06l2.93,8.4h-2l-.45-1.39Zm2-3.51c-.23-.69-.41-1.22-.42-1.23h0s-.18.53-.42,1.22l-.54,1.68h2Z"/><path class="cls-5" d="M71.13,79a3.77,3.77,0,0,1-3.6,2.65c-2.25,0-3.92-1.77-3.92-4.39s1.67-4.35,3.92-4.35a3.7,3.7,0,0,1,3.53,2.43l-1.8.54a2,2,0,0,0-1.81-1.07c-1.23,0-2,1-2,2.47s.83,2.46,2,2.46a2,2,0,0,0,1.91-1.27Z"/><path class="cls-5" d="M76.16,77.77c0,2.5-1,3.9-3,3.9a2.53,2.53,0,0,1-2-.83l1.05-1.55a1.09,1.09,0,0,0,1,.47c1,0,1.21-.71,1.21-2.18V73.1h1.81Z"/><path class="cls-5" d="M78.44,80.11,78,81.5H76.07L79,73.1h2.06L84,81.5H82l-.46-1.39Zm2-3.51c-.24-.69-.41-1.22-.42-1.23h0s-.19.53-.43,1.22L79,78.27h2Z"/><path class="cls-5" d="M14.54,85.59c-.14-.52-.2-.75-.2-.76h0s-.06.24-.2.76l-.29,1H13l-.81-3.08H13l.27,1.14c.14.55.19.8.2.81h0s.06-.25.19-.73l.24-1h.85l.24,1c.11.47.15.71.16.72h0s.06-.25.2-.81l.29-1.14h.75l-.8,3.08h-.82Z"/><path class="cls-5" d="M17.94,83.5a1.6,1.6,0,1,1-1.5,1.6A1.49,1.49,0,0,1,17.94,83.5Zm0,2.4a.81.81,0,1,0-.7-.8A.71.71,0,0,0,17.94,85.9Z"/><path class="cls-5" d="M19.73,83.56h.78v2.27h1.22v.81h-2Z"/><path class="cls-5" d="M23.91,86.64l-1.07-1.73h0v1.73H22V83.56h.81l1.08,1.67h0V83.56h.79v3.08Z"/><path class="cls-5" d="M26.52,83.5A1.6,1.6,0,1,1,25,85.1,1.49,1.49,0,0,1,26.52,83.5Zm0,2.4a.81.81,0,1,0-.69-.8A.71.71,0,0,0,26.52,85.9Z"/><path class="cls-5" d="M28.88,85.65a.49.49,0,0,0,.53.38c.22,0,.37-.08.37-.28s-.29-.27-.81-.4a.84.84,0,0,1-.75-.88c0-.66.43-1,1.12-1a1.1,1.1,0,0,1,1.2.77l-.68.2a.45.45,0,0,0-.48-.3c-.21,0-.35.09-.35.26s.2.23.66.33a1,1,0,0,1,.89,1c0,.7-.51,1-1.17,1a1.11,1.11,0,0,1-1.24-.84Zm.1-2.39.55-1,.65.23-.47.76Z"/><path class="cls-5" d="M33.56,85.8a1.39,1.39,0,0,1-1.33.9,1.6,1.6,0,0,1,0-3.2,1.36,1.36,0,0,1,1.33.91l-.74.22a.75.75,0,1,0-.59,1.27.64.64,0,0,0,.58-.32Zm-1.75-2.54.56-1,.64.23-.46.76Z"/><path class="cls-5" d="M35,83.56h.78v3.08H35Z"/><path class="cls-5" d="M39.16,86.64l-1.08-1.73h0s0,.33,0,.68v1h-.79V83.56h.81l1.09,1.67h0V83.56H40v3.08Z"/><path class="cls-5" d="M40.41,83.56h.78v3.08h-.78Z"/><path class="cls-5" d="M41.63,83.56H43.8v.81H42.41v.37h1v.68h-1v.41h1.42v.81h-2.2Z"/><path class="cls-5" d="M45.33,83.56a1.06,1.06,0,0,1,1.17,1.11,1,1,0,0,1-1.17,1.08H45v.89h-.78V83.56Zm0,1.49a.33.33,0,0,0,.35-.37.32.32,0,0,0-.35-.35H45v.72Z"/><path class="cls-5" d="M48.17,83.5a1.6,1.6,0,1,1-1.5,1.6A1.49,1.49,0,0,1,48.17,83.5Zm0,2.4a.81.81,0,1,0-.7-.8A.71.71,0,0,0,48.17,85.9Z"/><path class="cls-5" d="M51.1,83.56a1.46,1.46,0,0,1,1.54,1.55,1.44,1.44,0,0,1-1.55,1.53H50V83.56Zm0,2.27c.49,0,.77-.19.77-.72a.66.66,0,0,0-.76-.74h-.35v1.46Z"/><path class="cls-5" d="M52.94,83.56h.78v2.27h1.22v.81h-2Z"/><path class="cls-5" d="M55.25,83.56h2.18v.81H56v.37h1v.68H56v.41h1.43v.81H55.25Z"/><path class="cls-5" d="M59.83,86.64a2.39,2.39,0,0,1,0-.26h0a1.13,1.13,0,0,1-.81.32,1.61,1.61,0,0,1,.07-3.2,1.37,1.37,0,0,1,1.34.91l-.72.21a.67.67,0,0,0-.62-.33c-.44,0-.71.29-.71.81a.74.74,0,0,0,.81.81,1.32,1.32,0,0,0,.64-.17v-.17h-.72V84.8h1.42v1.84Z"/><path class="cls-5" d="M62.9,86.64h-2V83.56h.78V84.7l.87-.42v.81l-.87.42v.32H62.9Z"/><path class="cls-5" d="M64.45,83.5A1.6,1.6,0,1,1,63,85.1,1.49,1.49,0,0,1,64.45,83.5Zm0,2.4a.81.81,0,0,0,0-1.6.81.81,0,0,0,0,1.6Z"/><path class="cls-5" d="M66.82,85.65a.47.47,0,0,0,.52.38c.22,0,.37-.08.37-.28s-.29-.27-.8-.4a.84.84,0,0,1-.76-.88c0-.66.43-1,1.13-1a1.1,1.1,0,0,1,1.19.77l-.68.2a.45.45,0,0,0-.47-.3c-.22,0-.36.09-.36.26s.2.23.66.33a1,1,0,0,1,.89,1c0,.7-.51,1-1.16,1a1.12,1.12,0,0,1-1.25-.84Zm.09-2.39.55-1,.65.23-.46.76Z"/><path class="cls-5" d="M71.49,85.8a1.39,1.39,0,0,1-1.32.9,1.6,1.6,0,0,1,0-3.2,1.36,1.36,0,0,1,1.33.91l-.74.22a.71.71,0,0,0-.59-.33.81.81,0,0,0,0,1.6.64.64,0,0,0,.58-.32Zm-1.74-2.54.55-1,.64.23-.46.76Z"/></g></g></svg>