<svg xmlns="http://www.w3.org/2000/svg" xmlns:xlink="http://www.w3.org/1999/xlink" viewBox="0 0 84.06 67.34"><defs><style>.cls-1{fill:url(#linear-gradient);}.cls-2{fill:#fff;}.cls-2,.cls-3{fill-rule:evenodd;}.cls-3{fill:#ffca05;}</style><linearGradient id="linear-gradient" y1="33.67" x2="84.06" y2="33.67" gradientUnits="userSpaceOnUse"><stop offset="0" stop-color="#173358"/><stop offset="1" stop-color="#0d1e37"/></linearGradient></defs><title>Zasób 3</title><g id="Warstwa_2" data-name="Warstwa 2"><g id="Layer_1" data-name="Layer 1"><path class="cls-1" d="M76.24,41.36a33.69,33.69,0,0,1,7.82-1.84,18.28,18.28,0,0,0-9.71-7.83l-.52-2.77L69.06,6.1h-35L33.33,0,10.91,6.94l-6-3.59L6.63,8.59l-1.52.58L4,13.5H4L0,13.52l3.51,4L5,22.38,0,25.24l5.68,2.61L8,48.55,39,66.66l31.2.68"/><path class="cls-2" d="M15.64,11.47C23.53,24,37.79,26.62,37.79,26.62s-6.5-5.11-9.74-7.74C24.65,16.13,15.64,11.47,15.64,11.47Z"/><path class="cls-2" d="M54,33.22c-2.3.26-3.3,1.4-3.23,2,.11.83,2.14,1.26,4.53,1A7.4,7.4,0,0,0,58.72,35Z"/><path class="cls-2" d="M52,52S68,38.36,79.5,37.77c0,0-4.1-4.12-13.3-5.41.9-3.81-2-5.32-5.43-5.09-4.21.28-14.66,3.59-14.66,3.59a8,8,0,0,1-3.62.28C34,29.42,27.14,27.36,21.39,23,16,18.87,15.46,18.14,4.92,3.35c0,0-1.46,5.33,3.39,14.06C2.19,16.67,0,13.52,0,13.52,2.65,23,9.64,25.6,9.64,25.6A31.4,31.4,0,0,1,0,25.24c3,7.22,14.58,7.69,14.58,7.69a11.76,11.76,0,0,1-5.72,3.76C12.54,40,20,39.37,20,39.37A8,8,0,0,1,15.66,45c3.38,1,10-.85,10-.85a38.29,38.29,0,0,1-4.6,6.57s8.15-6.36,11.54-8.85A65.62,65.62,0,0,1,54.05,31.26a17.9,17.9,0,0,1,7-.7c1.61.2,2.09,1.49,1.11,2.87A9,9,0,0,1,60.59,35,18.31,18.31,0,0,1,73,36.67C63.81,39,56.26,44,52,52Z"/><path class="cls-3" d="M44.66,27.85A53.9,53.9,0,0,1,61.88,24.2l-2.44-9.35a29.49,29.49,0,0,1-3.9,5.33,29.84,29.84,0,0,1-3.87-3.46c-.21,1.63-2.21,4.94-2.21,4.94A22,22,0,0,1,42.77,18Z"/></g></g></svg>