<svg width="365" height="66" viewBox="0 0 365 66" fill="none" xmlns="http://www.w3.org/2000/svg">
<g clip-path="url(#clip0)">
<path d="M105.547 28.0213L102.674 31.5957V39.3191H96.88V12.5106H102.674V24.0798H102.785L105.339 20.633L111.452 12.5106H118.347L109.76 23.3617L118.826 39.3191H112.122L105.547 28.0213Z" fill="#EDEDED"/>
<path d="M129.982 11.984C137.372 11.984 142.751 17.7287 142.751 25.9149C142.751 34.1011 137.372 39.8936 129.982 39.8936C122.592 39.8936 117.214 34.1489 117.214 25.9468C117.214 17.7447 122.608 11.984 129.982 11.984ZM129.982 33.766C133.988 33.766 136.877 30.7021 136.877 25.9149C136.877 21.1277 134.068 18.0319 129.982 18.0319C125.896 18.0319 123.087 21.0957 123.087 25.9149C123.087 30.734 125.992 33.766 129.982 33.766Z" fill="#EDEDED"/>
<path d="M150.571 23.3138H150.459C150.459 23.3138 150.459 26.6489 150.459 30.1277V39.3191H144.745V12.5106H150.603L160.882 28.2128H160.977C160.977 28.2128 160.977 24.734 160.977 21.8298V12.5106H166.771V39.3191H160.882L150.571 23.3138Z" fill="#EDEDED"/>
<path d="M175.565 18.4947V23.617H184.487V29.6011H175.565V39.3191H169.771V12.5106H187.041V18.4947H175.565Z" fill="#EDEDED"/>
<path d="M189.307 12.5106H206.864V18.4947H195.069V23.0904H203.767V28.4521H195.069V33.3511H207.039V39.3191H189.307V12.5106Z" fill="#EDEDED"/>
<path d="M219.856 12.5106C227.07 12.5106 232.624 17.9521 232.624 26.0426C232.624 34.133 227.07 39.3191 219.856 39.3191H209.545V12.5106H219.856ZM219.552 33.3511C220.525 33.4191 221.5 33.2758 222.412 32.931C223.324 32.5862 224.15 32.0481 224.834 31.3536C225.518 30.6592 226.044 29.8248 226.374 28.908C226.705 27.9912 226.833 27.0137 226.75 26.0426C226.835 25.06 226.709 24.0707 226.382 23.1403C226.055 22.2099 225.534 21.3597 224.854 20.6459C224.173 19.9322 223.348 19.3713 222.434 19.0004C221.52 18.6295 220.538 18.4571 219.552 18.4947H215.371V33.3511H219.552Z" fill="#EDEDED"/>
<path d="M234.619 12.5106H252.175V18.4947H240.381V23.0904H249.063V28.4521H240.381V33.3511H252.335V39.3191H234.619V12.5106Z" fill="#EDEDED"/>
<path d="M263.348 30.4787H260.762V39.3191H254.889V12.5106H264.05C270.131 12.5106 273.626 16.0372 273.626 21.5904C273.757 23.1771 273.389 24.765 272.573 26.1325C271.758 27.4999 270.536 28.5787 269.078 29.2181L274.6 39.3191H267.737L263.348 30.4787ZM264.513 25.3404C264.972 25.3888 265.436 25.3319 265.87 25.1738C266.303 25.0157 266.695 24.7607 267.015 24.4283C267.336 24.0959 267.576 23.6947 267.717 23.2555C267.859 22.8162 267.898 22.3504 267.833 21.8936C267.887 21.431 267.839 20.9621 267.693 20.5198C267.547 20.0775 267.306 19.6726 266.986 19.3335C266.667 18.9943 266.277 18.7292 265.844 18.5568C265.411 18.3843 264.946 18.3086 264.481 18.3351H260.762V25.3404H264.513Z" fill="#EDEDED"/>
<path d="M282.772 34.883L281.319 39.3191H275.222L284.527 12.5106H291.119L300.456 39.3191H294.263L292.811 34.883H282.772ZM289.156 23.7128C288.39 21.4947 287.847 19.8032 287.815 19.7713H287.703C287.703 19.7713 287.129 21.4628 286.363 23.6809L284.639 29.0426H290.88L289.156 23.7128Z" fill="#EDEDED"/>
<path d="M323.997 31.4043C323.233 33.8538 321.705 35.9952 319.638 37.5164C317.571 39.0377 315.073 39.8593 312.506 39.8617C305.308 39.8617 299.993 34.2287 299.993 25.8511C299.993 17.4734 305.308 11.984 312.506 11.984C314.953 11.9477 317.35 12.6731 319.366 14.0597C321.382 15.4464 322.917 17.4257 323.758 19.7234L318.028 21.4468C317.476 20.395 316.641 19.518 315.618 18.9148C314.594 18.3115 313.422 18.0057 312.235 18.0319C308.308 18.0319 305.85 21.2234 305.85 25.9149C305.85 30.6064 308.5 33.766 312.235 33.766C313.544 33.7972 314.831 33.4251 315.922 32.7C317.013 31.975 317.854 30.9321 318.331 29.7128L323.997 31.4043Z" fill="#EDEDED"/>
<path d="M340.038 27.4149C340.038 35.3936 336.846 39.8617 330.462 39.8617C329.255 39.9275 328.049 39.724 326.931 39.2658C325.813 38.8076 324.811 38.1063 323.998 37.2128L327.349 32.2819C327.692 32.7688 328.153 33.1605 328.69 33.4202C329.226 33.6798 329.819 33.7988 330.414 33.766C333.733 33.766 334.276 31.516 334.276 26.8085V12.4468H340.07L340.038 27.4149Z" fill="#EDEDED"/>
<path d="M347.316 34.883L345.863 39.3191H339.766L349.071 12.5106H355.647L365 39.3191H358.791L357.339 34.883H347.316ZM353.7 23.7128C352.934 21.4947 352.375 19.8032 352.343 19.7713H352.248C352.248 19.7713 351.657 21.4628 350.907 23.6809L349.167 29.0426H355.424L353.7 23.7128Z" fill="#EDEDED"/>
<path d="M142.926 51.9255C142.479 50.3298 142.288 49.5319 142.272 49.5C142.272 49.5 142.064 50.266 141.617 51.9415L140.692 55.2766H138.026L135.441 45.4468H138.122L139 49.0851C139.447 50.8564 139.606 51.6543 139.622 51.6702C139.622 51.6702 139.798 50.8723 140.213 49.3564L141.043 46.2766H143.756L144.522 49.4681C144.889 50.984 145.017 51.75 145.033 51.766C145.033 51.766 145.208 50.9681 145.655 49.1808L146.597 45.5426H149.007L146.437 55.3723H143.836L142.926 51.9255Z" fill="#EDEDED"/>
<path d="M153.763 45.2553C154.42 45.2539 155.07 45.3874 155.672 45.6477C156.275 45.908 156.818 46.2894 157.267 46.7684C157.716 47.2473 158.062 47.8134 158.283 48.4315C158.504 49.0497 158.595 49.7067 158.551 50.3617C158.551 50.9904 158.427 51.6129 158.187 52.1937C157.946 52.7745 157.594 53.3022 157.149 53.7468C156.704 54.1913 156.176 54.5439 155.596 54.7845C155.015 55.0251 154.392 55.1489 153.763 55.1489C153.134 55.1489 152.512 55.0251 151.931 54.7845C151.35 54.5439 150.822 54.1913 150.377 53.7468C149.933 53.3022 149.58 52.7745 149.339 52.1937C149.099 51.6129 148.975 50.9904 148.975 50.3617C148.931 49.7067 149.023 49.0497 149.244 48.4315C149.465 47.8134 149.81 47.2473 150.259 46.7684C150.708 46.2894 151.251 45.908 151.854 45.6477C152.457 45.3874 153.107 45.2539 153.763 45.2553ZM153.763 52.9308C154.085 52.9264 154.403 52.8543 154.695 52.7193C154.987 52.5843 155.248 52.3893 155.46 52.1471C155.673 51.9049 155.831 51.6208 155.927 51.3132C156.022 51.0056 156.052 50.6814 156.014 50.3617C156.061 50.0398 156.038 49.7115 155.947 49.3992C155.856 49.0869 155.699 48.7978 155.486 48.5516C155.273 48.3055 155.01 48.108 154.714 47.9727C154.418 47.8373 154.097 47.7673 153.771 47.7673C153.446 47.7673 153.124 47.8373 152.828 47.9727C152.532 48.108 152.269 48.3055 152.056 48.5516C151.844 48.7978 151.686 49.0869 151.595 49.3992C151.504 49.7115 151.482 50.0398 151.529 50.3617C151.488 50.6806 151.516 51.0044 151.609 51.312C151.702 51.6195 151.86 51.9039 152.071 52.1465C152.282 52.389 152.541 52.5843 152.833 52.7195C153.125 52.8546 153.442 52.9267 153.763 52.9308Z" fill="#EDEDED"/>
<path d="M159.477 45.4468H161.983V52.6596H165.861V55.2287H159.477V45.4468Z" fill="#EDEDED"/>
<path d="M172.852 55.2766L169.404 49.7553C169.404 49.7553 169.404 50.8085 169.404 51.9255V55.2766H166.899V45.4468H169.5L172.964 50.7926V45.4468H175.469V55.2766H172.852Z" fill="#EDEDED"/>
<path d="M181.183 45.2553C181.84 45.2539 182.49 45.3874 183.092 45.6477C183.695 45.908 184.238 46.2894 184.687 46.7684C185.136 47.2473 185.482 47.8134 185.703 48.4315C185.924 49.0497 186.015 49.7067 185.971 50.3617C185.971 51.6314 185.467 52.849 184.569 53.7468C183.671 54.6446 182.453 55.1489 181.183 55.1489C179.913 55.1489 178.695 54.6446 177.797 53.7468C176.9 52.849 176.395 51.6314 176.395 50.3617C176.351 49.7067 176.443 49.0497 176.664 48.4315C176.885 47.8134 177.23 47.2473 177.679 46.7684C178.128 46.2894 178.671 45.908 179.274 45.6477C179.877 45.3874 180.527 45.2539 181.183 45.2553ZM181.183 52.9308C181.505 52.9267 181.822 52.8546 182.113 52.7195C182.405 52.5843 182.665 52.389 182.876 52.1465C183.087 51.9039 183.244 51.6195 183.337 51.312C183.431 51.0044 183.458 50.6806 183.418 50.3617C183.455 50.0459 183.426 49.7257 183.331 49.4221C183.236 49.1186 183.078 48.8387 182.866 48.6008C182.655 48.3629 182.396 48.1725 182.106 48.042C181.816 47.9116 181.501 47.8442 181.183 47.8442C180.865 47.8442 180.551 47.9116 180.26 48.042C179.97 48.1725 179.711 48.3629 179.5 48.6008C179.289 48.8387 179.131 49.1186 179.036 49.4221C178.94 49.7257 178.911 50.0459 178.949 50.3617C178.908 50.6806 178.936 51.0044 179.029 51.312C179.122 51.6195 179.28 51.9039 179.491 52.1465C179.702 52.389 179.961 52.5843 180.253 52.7195C180.545 52.8546 180.862 52.9267 181.183 52.9308Z" fill="#EDEDED"/>
<path d="M188.717 52.133C188.81 52.4982 189.029 52.8187 189.336 53.0378C189.642 53.2568 190.017 53.3603 190.392 53.3298C191.095 53.3298 191.558 53.0745 191.558 52.4362C191.558 51.7979 190.648 51.5745 189.004 51.1596C188.318 51.0908 187.685 50.7607 187.237 50.2377C186.788 49.7148 186.558 49.0392 186.594 48.3511C186.594 46.2447 187.967 45.2553 190.185 45.2553C191.009 45.1442 191.846 45.3306 192.545 45.781C193.245 46.2314 193.76 46.9164 194 47.7128L191.829 48.367C191.723 48.041 191.504 47.7637 191.211 47.5852C190.918 47.4067 190.571 47.3387 190.233 47.3936C189.531 47.3936 189.084 47.6808 189.084 48.2234C189.084 48.766 189.738 48.9574 191.191 49.2926C191.971 49.3456 192.701 49.6966 193.23 50.2728C193.759 50.849 194.046 51.6064 194.031 52.3883C194.031 54.6223 192.435 55.484 190.329 55.484C189.451 55.6125 188.557 55.4088 187.822 54.9129C187.087 54.4171 186.564 53.6647 186.354 52.8032L188.717 52.133ZM189.02 44.5053L190.791 41.3138L192.834 42.0319L191.366 44.4894L189.02 44.5053Z" fill="#EDEDED"/>
<path d="M203.64 52.6596C203.324 53.5217 202.746 54.2636 201.988 54.7815C201.23 55.2994 200.328 55.5673 199.41 55.5479C198.754 55.5493 198.104 55.4158 197.501 55.1555C196.898 54.8952 196.355 54.5137 195.906 54.0348C195.457 53.5559 195.112 52.9898 194.891 52.3716C194.67 51.7535 194.578 51.0965 194.622 50.4415C194.576 49.7852 194.666 49.1265 194.886 48.5064C195.105 47.8864 195.451 47.3183 195.9 46.8376C196.349 46.357 196.893 45.9741 197.497 45.7128C198.101 45.4515 198.752 45.3175 199.41 45.3191C200.335 45.2851 201.247 45.5489 202.012 46.0717C202.776 46.5945 203.352 47.3487 203.656 48.2234L201.293 48.9255C201.014 48.4976 200.599 48.1764 200.114 48.0142C199.63 47.8521 199.105 47.8583 198.624 48.032C198.144 48.2057 197.736 48.5366 197.467 48.9711C197.199 49.4056 197.085 49.9181 197.144 50.4255C197.106 50.7466 197.136 51.0721 197.232 51.3808C197.328 51.6895 197.488 51.9743 197.702 52.2168C197.916 52.4593 198.179 52.6539 198.473 52.788C198.767 52.922 199.087 52.9925 199.41 52.9947C199.784 53.0062 200.154 52.9157 200.48 52.7329C200.806 52.5502 201.076 52.2821 201.262 51.9574L203.64 52.6596ZM198.069 44.5691L199.841 41.3777L201.884 42.0957L200.416 44.5532L198.069 44.5691Z" fill="#EDEDED"/>
<path d="M208.093 45.4468H210.678V55.2766H208.172L208.093 45.4468Z" fill="#EDEDED"/>
<path d="M221.515 55.2766L218.068 49.7553C218.068 49.7553 218.068 50.8085 218.068 51.9255V55.2766H215.466V45.4468H218.052L221.515 50.7926V45.4468H224.021V55.2766H221.515Z" fill="#EDEDED"/>
<path d="M225.505 45.4468H228.011V55.2766H225.505V45.4468Z" fill="#EDEDED"/>
<path d="M229.384 45.4468H236.359V48.0319H231.874V49.2287H234.938V51.3989H231.874V52.6596H236.438V55.2287H229.384V45.4468Z" fill="#EDEDED"/>
<path d="M241.211 45.4468C241.697 45.3959 242.188 45.4503 242.651 45.6064C243.114 45.7625 243.538 46.0165 243.894 46.3512C244.25 46.6859 244.529 47.0934 244.714 47.5459C244.898 47.9984 244.982 48.4853 244.961 48.9734C244.986 49.4605 244.904 49.9471 244.72 50.3989C244.537 50.8508 244.256 51.2568 243.898 51.5885C243.541 51.9202 243.115 52.1695 242.65 52.3187C242.186 52.4679 241.695 52.5134 241.211 52.4521H240.077V55.2766H237.588V45.4468H241.211ZM241.306 50.234C241.459 50.2468 241.613 50.2255 241.756 50.1718C241.9 50.1181 242.03 50.0333 242.136 49.9234C242.243 49.8136 242.324 49.6814 242.374 49.5365C242.424 49.3915 242.441 49.2374 242.424 49.0851C242.441 48.9328 242.424 48.7787 242.374 48.6337C242.324 48.4888 242.243 48.3566 242.136 48.2468C242.03 48.1369 241.9 48.0521 241.756 47.9984C241.613 47.9447 241.459 47.9234 241.306 47.9362H240.077V50.234H241.306Z" fill="#EDEDED"/>
<path d="M250.276 45.2553C250.933 45.2539 251.583 45.3874 252.185 45.6477C252.788 45.908 253.331 46.2894 253.78 46.7684C254.229 47.2473 254.575 47.8134 254.796 48.4315C255.017 49.0497 255.108 49.7067 255.064 50.3617C255.064 51.6314 254.56 52.849 253.662 53.7468C252.764 54.6446 251.546 55.1489 250.276 55.1489C249.006 55.1489 247.788 54.6446 246.89 53.7468C245.992 52.849 245.488 51.6314 245.488 50.3617C245.444 49.7067 245.536 49.0497 245.757 48.4315C245.977 47.8134 246.323 47.2473 246.772 46.7684C247.221 46.2894 247.764 45.908 248.367 45.6477C248.97 45.3874 249.62 45.2539 250.276 45.2553ZM250.276 52.9308C250.598 52.9267 250.914 52.8546 251.206 52.7195C251.498 52.5843 251.758 52.389 251.969 52.1465C252.18 51.9039 252.337 51.6195 252.43 51.312C252.524 51.0044 252.551 50.6806 252.511 50.3617C252.548 50.0459 252.519 49.7257 252.424 49.4221C252.329 49.1186 252.17 48.8387 251.959 48.6008C251.748 48.3629 251.489 48.1725 251.199 48.042C250.909 47.9116 250.594 47.8442 250.276 47.8442C249.958 47.8442 249.643 47.9116 249.353 48.042C249.063 48.1725 248.804 48.3629 248.593 48.6008C248.382 48.8387 248.223 49.1186 248.128 49.4221C248.033 49.7257 248.004 50.0459 248.042 50.3617C248.001 50.6806 248.028 51.0044 248.122 51.312C248.215 51.6195 248.373 51.9039 248.584 52.1465C248.794 52.389 249.054 52.5843 249.346 52.7195C249.638 52.8546 249.955 52.9267 250.276 52.9308Z" fill="#EDEDED"/>
<path d="M259.629 45.4468C260.29 45.4096 260.951 45.5127 261.569 45.7491C262.188 45.9856 262.749 46.3501 263.216 46.8189C263.683 47.2876 264.046 47.8498 264.281 48.4687C264.515 49.0875 264.616 49.749 264.577 50.4096C264.615 51.067 264.512 51.7251 264.275 52.3395C264.038 52.9539 263.672 53.5103 263.202 53.9715C262.731 54.4326 262.168 54.7876 261.549 55.0128C260.93 55.2379 260.27 55.3279 259.613 55.2766H255.99V45.4468H259.629ZM259.629 52.7074C261.225 52.7074 262.071 52.0851 262.071 50.4096C262.114 50.0844 262.081 49.7537 261.974 49.4435C261.868 49.1332 261.691 48.8518 261.457 48.6215C261.224 48.3911 260.94 48.218 260.628 48.1157C260.317 48.0134 259.986 47.9847 259.661 48.0319H258.56V52.6596L259.629 52.7074Z" fill="#EDEDED"/>
<path d="M265.502 45.4468H267.992V52.6596H271.887V55.2287H265.502V45.4468Z" fill="#EDEDED"/>
<path d="M272.924 45.4468H279.899V48.0319H275.43V49.2287H278.494V51.3989H275.43V52.6596H279.979V55.2287H272.924V45.4468Z" fill="#EDEDED"/>
<path d="M287.512 55.2766C287.512 54.6223 287.512 54.5585 287.512 54.4628C287.177 54.8003 286.776 55.0652 286.333 55.2409C285.891 55.4166 285.418 55.4994 284.942 55.484C284.299 55.4601 283.667 55.3067 283.085 55.0331C282.502 54.7595 281.981 54.3712 281.552 53.8916C281.123 53.4119 280.795 52.8507 280.587 52.2415C280.38 51.6322 280.298 50.9875 280.346 50.3457C280.304 49.692 280.397 49.0368 280.619 48.4205C280.841 47.8042 281.187 47.2401 281.636 46.7629C282.085 46.2857 282.627 45.9058 283.229 45.6464C283.83 45.3871 284.479 45.254 285.134 45.2553C286.062 45.2244 286.977 45.489 287.746 46.0109C288.514 46.5328 289.098 47.2851 289.411 48.1596L287.113 48.8457C286.914 48.5026 286.623 48.2211 286.274 48.0324C285.925 47.8438 285.53 47.7552 285.134 47.7766C283.729 47.7766 282.851 48.7021 282.851 50.3617C282.82 50.7092 282.865 51.0594 282.983 51.3875C283.102 51.7156 283.291 52.0136 283.538 52.2604C283.785 52.5071 284.083 52.6965 284.411 52.8151C284.739 52.9338 285.09 52.9787 285.437 52.9468C286.153 52.9446 286.857 52.7577 287.48 52.4043V51.8617H285.214V49.4681H289.746V55.3245L287.512 55.2766Z" fill="#EDEDED"/>
<path d="M297.312 55.2766H290.927V45.4468H293.417V49.1011L296.194 47.7287V50.3298L293.417 51.6862V52.6596H297.312V55.2766Z" fill="#EDEDED"/>
<path d="M302.275 45.2553C302.932 45.2539 303.582 45.3874 304.185 45.6477C304.787 45.908 305.33 46.2894 305.779 46.7684C306.228 47.2473 306.574 47.8134 306.795 48.4315C307.016 49.0497 307.107 49.7067 307.064 50.3617C307.064 51.6314 306.559 52.849 305.661 53.7468C304.763 54.6446 303.545 55.1489 302.275 55.1489C301.005 55.1489 299.788 54.6446 298.89 53.7468C297.992 52.849 297.487 51.6314 297.487 50.3617C297.443 49.7067 297.535 49.0497 297.756 48.4315C297.977 47.8134 298.323 47.2473 298.772 46.7684C299.221 46.2894 299.763 45.908 300.366 45.6477C300.969 45.3874 301.619 45.2539 302.275 45.2553ZM302.275 52.9308C302.597 52.9267 302.914 52.8546 303.205 52.7195C303.497 52.5843 303.757 52.389 303.968 52.1465C304.179 51.9039 304.336 51.6195 304.43 51.312C304.523 51.0044 304.55 50.6806 304.51 50.3617C304.548 50.0459 304.518 49.7257 304.423 49.4221C304.328 49.1186 304.17 48.8387 303.959 48.6008C303.747 48.3629 303.488 48.1725 303.198 48.042C302.908 47.9116 302.593 47.8442 302.275 47.8442C301.957 47.8442 301.643 47.9116 301.353 48.042C301.062 48.1725 300.803 48.3629 300.592 48.6008C300.381 48.8387 300.223 49.1186 300.128 49.4221C300.033 49.7257 300.003 50.0459 300.041 50.3617C300 50.6806 300.028 51.0044 300.121 51.312C300.215 51.6195 300.372 51.9039 300.583 52.1465C300.794 52.389 301.054 52.5843 301.345 52.7195C301.637 52.8546 301.954 52.9267 302.275 52.9308Z" fill="#EDEDED"/>
<path d="M309.809 52.133C309.899 52.4841 310.107 52.7939 310.397 53.0114C310.687 53.229 311.042 53.3412 311.405 53.3298C312.123 53.3298 312.57 53.0745 312.57 52.4362C312.57 51.7979 311.66 51.5745 310.016 51.1596C309.33 51.0908 308.698 50.7607 308.249 50.2377C307.8 49.7148 307.57 49.0392 307.606 48.3511C307.606 46.2447 308.979 45.2553 311.197 45.2553C312.024 45.1435 312.863 45.3293 313.565 45.7795C314.266 46.2298 314.785 46.9151 315.028 47.7128L312.841 48.367C312.74 48.0545 312.534 47.7867 312.257 47.6092C311.981 47.4317 311.651 47.3555 311.325 47.3936C310.623 47.3936 310.192 47.6808 310.192 48.2234C310.192 48.766 310.83 48.9574 312.283 49.2926C313.066 49.3417 313.8 49.691 314.332 50.2676C314.864 50.8442 315.153 51.6038 315.139 52.3883C315.139 54.6223 313.543 55.484 311.421 55.484C310.543 55.6125 309.65 55.4088 308.914 54.9129C308.179 54.4171 307.656 53.6647 307.447 52.8032L309.809 52.133ZM310.112 44.5053L311.884 41.3138L313.942 42.0319L312.458 44.4894L310.112 44.5053Z" fill="#EDEDED"/>
<path d="M324.748 52.6596C324.425 53.5203 323.843 54.2601 323.083 54.7772C322.323 55.2944 321.421 55.5636 320.502 55.5479C319.846 55.5493 319.196 55.4158 318.593 55.1555C317.99 54.8952 317.447 54.5137 316.998 54.0348C316.549 53.5559 316.204 52.9898 315.983 52.3716C315.762 51.7535 315.67 51.0965 315.714 50.4415C315.668 49.7852 315.758 49.1265 315.978 48.5064C316.198 47.8864 316.543 47.3183 316.992 46.8376C317.441 46.357 317.985 45.9741 318.589 45.7128C319.193 45.4515 319.844 45.3175 320.502 45.3191C321.429 45.2867 322.342 45.5509 323.109 46.0732C323.875 46.5956 324.455 47.3488 324.764 48.2234L322.386 48.9255C322.111 48.4912 321.697 48.1637 321.211 47.9973C320.725 47.831 320.197 47.8358 319.714 48.011C319.232 48.1861 318.823 48.5212 318.557 48.9604C318.291 49.3996 318.183 49.9166 318.252 50.4255C318.211 50.7457 318.239 51.0709 318.333 51.3796C318.428 51.6882 318.586 51.9734 318.799 52.2162C319.012 52.459 319.273 52.654 319.567 52.7881C319.861 52.9223 320.179 52.9927 320.502 52.9947C320.876 53.0079 321.247 52.9182 321.573 52.7353C321.9 52.5524 322.17 52.2833 322.354 51.9574L324.748 52.6596ZM319.209 44.5053L320.981 41.3138L323.04 42.0319L321.572 44.4894L319.209 44.5053Z" fill="#EDEDED"/>
<path d="M9.4486 25.1011C7.74081 24.3485 6.19994 23.2636 4.91582 21.9096L0 24.75C3.11287 25.351 6.2997 25.4694 9.4486 25.1011Z" fill="url(#paint0_linear)"/>
<path d="M8.13984 17.0585C6.66823 14.5465 5.59163 11.8232 4.94775 8.98404L3.87839 13.2287L0 13.2606L0.462854 13.7713C2.57124 15.7115 5.28044 16.8715 8.13984 17.0585Z" fill="url(#paint1_linear)"/>
<path d="M72.8915 31.0532L72.3807 28.3564L67.7043 6.01596H33.4053L32.6711 0L10.6935 6.81383L4.78815 3.28723C15.1146 17.7926 15.6093 18.4947 20.9401 22.5479C26.5742 26.8245 33.3414 28.8351 41.6888 30.5266C42.8652 30.7218 44.0705 30.6509 45.216 30.3191C45.216 30.3191 55.4467 27.1277 59.5804 26.7926C62.9162 26.5692 65.7891 28.0532 64.9112 31.7872C73.9129 33.0479 77.935 37.0851 77.935 37.0851C66.619 37.6596 50.9299 51 50.9299 51C55.1594 43.2287 62.565 38.234 71.6785 36.016C67.9346 34.0321 63.6088 33.4384 59.4687 34.3404C60.0602 33.9017 60.5962 33.3926 61.0648 32.8245C62.0224 31.484 61.5595 30.2074 59.9795 30.016C57.6742 29.7946 55.3479 30.0278 53.1324 30.7021C45.4883 32.8056 38.2976 36.3002 31.9209 41.0106C28.7289 43.4362 20.7486 49.6755 20.7486 49.6755C22.4709 47.7098 23.9846 45.5706 25.2654 43.2926C25.2654 43.2926 18.7536 45.0638 15.4338 44.1223C16.5148 43.5938 17.4599 42.8239 18.196 41.8721C18.9321 40.9203 19.4396 39.812 19.6793 38.633C19.6793 38.633 12.3694 39.2074 8.7623 36.016C10.9594 35.3557 12.9098 34.0557 14.3644 32.2819C11.4474 32.1209 8.58017 31.4569 5.88942 30.3191L7.80468 47.633L38.3051 65.4255L68.9014 66.0798L74.8387 40.6277C77.3047 39.7199 79.8718 39.1144 82.4837 38.8245C80.312 35.1763 76.9112 32.4212 72.8915 31.0532ZM15.3221 11.1702C19.5399 13.32 23.6084 15.751 27.4999 18.4468C30.692 21.016 37.0762 26.0266 37.0762 26.0266C37.0762 26.0266 23.0629 23.5532 15.3221 11.1702ZM49.7807 34.516C49.7009 33.9415 50.6905 32.8085 52.9728 32.5691L57.6013 34.3404C56.5923 34.9812 55.4414 35.3647 54.2496 35.4574C51.8715 35.7447 49.8765 35.3298 49.7807 34.516Z" fill="url(#paint2_linear)"/>
<path fill-rule="evenodd" clip-rule="evenodd" d="M43.7796 27.3032C49.1691 25.1929 54.868 23.9801 60.6498 23.7128L58.2558 14.5691C57.1775 16.4418 55.8984 18.1915 54.4412 19.7872C53.0789 18.7665 51.8079 17.6292 50.6426 16.3883C50.1385 18.0747 49.4083 19.685 48.472 21.1755C46.0981 20.3728 43.8794 19.1692 41.9122 17.617L43.7796 27.3032Z" fill="#E7B809"/>
</g>
<defs>
<linearGradient id="paint0_linear" x1="0" y1="23.617" x2="9.4486" y2="23.617" gradientUnits="userSpaceOnUse">
<stop stop-color="white"/>
<stop offset="1" stop-color="#EDEDED"/>
</linearGradient>
<linearGradient id="paint1_linear" x1="0" y1="74.8717" x2="41.5132" y2="74.8717" gradientUnits="userSpaceOnUse">
<stop stop-color="white"/>
<stop offset="1" stop-color="#EDEDED"/>
</linearGradient>
<linearGradient id="paint2_linear" x1="239.429" y1="1366.53" x2="4016.21" y2="1366.53" gradientUnits="userSpaceOnUse">
<stop stop-color="white"/>
<stop offset="1" stop-color="#EDEDED"/>
</linearGradient>
<clipPath id="clip0">
<rect width="365" height="66" fill="white"/>
</clipPath>
</defs>
</svg>
